HIERARCHY
ROOT Hips
{
	OFFSET 0.000000 0.000000 0.000000
	CHANNELS 6 Xposition Yposition Zposition Xrotation Yrotation Zrotation
	JOINT Chest
	{
		OFFSET 0.000000 0.009282 11.569106
		CHANNELS 3 Xrotation Yrotation Zrotation
		JOINT Chest2
		{
			OFFSET 0.000000 -0.016863 9.269641
			CHANNELS 3 Xrotation Yrotation Zrotation
			JOINT Chest3
			{
				OFFSET 0.000000 0.000000 8.374491
				CHANNELS 3 Xrotation Yrotation Zrotation
				JOINT Chest4
				{
					OFFSET 0.000000 0.000000 8.374493
					CHANNELS 3 Xrotation Yrotation Zrotation
					JOINT Neck
					{
						OFFSET 0.000000 -0.000001 12.152554
						CHANNELS 3 Xrotation Yrotation Zrotation
						JOINT Head
						{
							OFFSET 0.000000 -0.040100 7.802319
							CHANNELS 3 Xrotation Yrotation Zrotation
							End Site
							{
								OFFSET 0.000000 -0.020946 14.853096
							}
						}
					}
					JOINT RightCollar
					{
						OFFSET -2.894404 0.000000 6.791374
						CHANNELS 3 Xrotation Yrotation Zrotation
						JOINT RightShoulder
						{
							OFFSET -13.574684 0.000000 0.000000
							CHANNELS 3 Xrotation Yrotation Zrotation
							JOINT RightElbow
							{
								OFFSET -23.923903 0.000000 0.000000
								CHANNELS 3 Xrotation Yrotation Zrotation
								JOINT RightWrist
								{
									OFFSET -19.846718 -0.012765 0.000000
									CHANNELS 3 Xrotation Yrotation Zrotation
									End Site
									{
										OFFSET -14.973145 0.000000 0.000000
									}
								}
							}
						}
					}
					JOINT LeftCollar
					{
						OFFSET 2.894404 0.000000 6.791374
						CHANNELS 3 Xrotation Yrotation Zrotation
						JOINT LeftShoulder
						{
							OFFSET 13.574684 0.000000 0.000000
							CHANNELS 3 Xrotation Yrotation Zrotation
							JOINT LeftElbow
							{
								OFFSET 23.923903 0.000000 0.000000
								CHANNELS 3 Xrotation Yrotation Zrotation
								JOINT LeftWrist
								{
									OFFSET 19.846718 -0.012765 0.000000
									CHANNELS 3 Xrotation Yrotation Zrotation
									End Site
									{
										OFFSET 14.973145 0.000000 0.000000
									}
								}
							}
						}
					}
				}
			}
		}
	}
	JOINT RightHip
	{
		OFFSET -9.469263 -0.004642 0.045487
		CHANNELS 3 Xrotation Yrotation Zrotation
		JOINT RightKnee
		{
			OFFSET 0.000000 -0.002666 -40.478676
			CHANNELS 3 Xrotation Yrotation Zrotation
			JOINT RightAnkle
			{
				OFFSET 0.000000 -0.049110 -35.224068
				CHANNELS 3 Xrotation Yrotation Zrotation
				JOINT RightToe
				{
					OFFSET 0.000000 -12.539530 -6.151390
					CHANNELS 3 Xrotation Yrotation Zrotation
					End Site
					{
						OFFSET 0.000000 -5.044995 -1.291870
					}
				}
			}
		}
	}
	JOINT LeftHip
	{
		OFFSET 9.469263 -0.004642 0.045487
		CHANNELS 3 Xrotation Yrotation Zrotation
		JOINT LeftKnee
		{
			OFFSET 0.000000 -0.002666 -40.478676
			CHANNELS 3 Xrotation Yrotation Zrotation
			JOINT LeftAnkle
			{
				OFFSET 0.000000 -0.049110 -35.224068
				CHANNELS 3 Xrotation Yrotation Zrotation
				JOINT LeftToe
				{
					OFFSET 0.000000 -12.539530 -6.151390
					CHANNELS 3 Xrotation Yrotation Zrotation
					End Site
					{
						OFFSET 0.000000 -5.044995 -1.291870
					}
				}
			}
		}
	}
}
MOTION
Frames: 7
Frame Time: 0.016667
-12.088244 -3.381173 82.829147 4.231932 8.138409 -114.546814 3.711343 -0.469935 1.091596 1.645322 -0.220691 0.488472 1.645324 -0.220691 0.488477 1.233816 -0.166835 0.365766 21.055808 -0.142049 0.055969 2.917778 -0.276287 0.060920 0.290515 -3.479186 -2.831617 46.154829 -64.355736 81.619627 32.041565 4.276918 58.003749 -28.484624 31.581036 75.927190 2.710348 9.951056 -11.214907 -14.300651 73.786609 -26.380648 -31.981995 45.284168 -18.020264 -41.172937 7.177255 3.475291 13.297037 0.120770 -1.336281 1.485021 -0.433056 -1.397190 -5.682795 -0.833139 4.850169 -0.009859 -0.037134 -0.038335 13.745621 -0.253405 0.993255 1.615804 -0.422281 4.608107 -6.299591 0.510748 -1.448009 0.034091 -0.043445 0.040241 
-12.063162 -3.394104 82.832817 4.245970 8.136791 -114.566895 3.737477 -0.450579 1.104514 1.657413 -0.212273 0.493195 1.657415 -0.212273 0.493195 1.242889 -0.160545 0.369325 21.124955 -0.149242 0.150847 3.046474 -0.317026 0.232602 0.318033 -3.476651 -2.840616 46.072163 -64.354493 81.560266 32.040889 4.229294 57.942243 -28.418363 31.548603 75.835590 2.731854 9.946292 -11.216508 -14.383205 73.802953 -26.317906 -31.990680 45.319961 -17.989784 -41.203010 7.169166 3.437501 13.222608 0.126729 -1.295991 1.601745 -0.459965 -1.395035 -5.709089 -0.797488 4.847504 -0.014909 -0.042113 -0.036939 13.715958 -0.268362 1.021344 1.649844 -0.404383 4.601126 -6.305591 0.498942 -1.434790 0.035578 -0.038828 0.039070 
-12.039163 -3.407587 82.835922 4.256039 8.132997 -114.585145 3.768372 -0.430677 1.121826 1.670948 -0.203633 0.499707 1.670950 -0.203634 0.499710 1.253045 -0.154093 0.374229 21.182826 -0.157145 0.242648 3.154335 -0.358034 0.398439 0.331035 -3.473273 -2.852264 45.972815 -64.342574 81.467805 32.025244 4.187752 57.908325 -28.327815 31.505419 75.698194 2.732034 9.938801 -11.224011 -14.382671 73.816231 -26.314911 -32.007458 45.337778 -17.976716 -41.217309 7.176703 3.446225 13.142161 0.129974 -1.245804 1.723516 -0.477821 -1.386465 -5.739170 -0.765652 4.811312 -0.018545 -0.045297 -0.036088 13.680761 -0.284854 1.041230 1.687913 -0.383119 4.591467 -6.313201 0.486709 -1.434850 0.036410 -0.034821 0.037532 
-12.014759 -3.420544 82.838905 4.264680 8.129599 -114.592788 3.799189 -0.413729 1.132364 1.684751 -0.196110 0.503313 1.684754 -0.196110 0.503309 1.263402 -0.148471 0.376941 21.235833 -0.164292 0.334390 3.253271 -0.397507 0.564407 0.332739 -3.467340 -2.864357 45.895354 -64.328825 81.392878 32.022249 4.137770 57.876831 -28.227159 31.458410 75.540287 2.724924 9.935635 -11.224699 -14.333365 73.823956 -26.358274 -32.007199 45.321150 -17.973544 -41.244855 7.204068 3.485957 13.065016 0.129767 -1.217089 1.840383 -0.493834 -1.366810 -5.768512 -0.732687 4.752405 -0.021284 -0.048234 -0.034839 13.644594 -0.297544 1.046332 1.726030 -0.366381 4.580061 -6.321294 0.474157 -1.411773 0.037937 -0.032009 0.036308 
-11.994971 -3.433302 82.841873 4.268764 8.129730 -114.591873 3.824541 -0.395210 1.137239 1.695754 -0.188084 0.504883 1.695753 -0.188085 0.504884 1.271660 -0.142466 0.378143 21.296456 -0.170870 0.424791 3.366463 -0.435383 0.728119 0.344065 -3.462131 -2.884599 45.808907 -64.318191 81.327185 32.044481 4.080060 57.839948 -28.128497 31.413164 75.406532 2.733244 9.929132 -11.226790 -14.334194 73.827685 -26.352844 -31.984523 45.301137 -17.975531 -41.253021 7.239278 3.537540 12.998690 0.135213 -1.223495 1.947494 -0.507880 -1.333847 -5.797976 -0.707120 4.714856 -0.022857 -0.048472 -0.034467 13.609745 -0.307750 1.043402 1.766616 -0.350416 4.574906 -6.328974 0.463022 -1.404249 0.036812 -0.028619 0.035414 
-11.978018 -3.446867 82.844482 4.269337 8.129910 -114.586819 3.838851 -0.381267 1.135963 1.702324 -0.182345 0.503771 1.702324 -0.182345 0.503776 1.276593 -0.138164 0.377326 21.367714 -0.172042 0.509121 3.499415 -0.461386 0.882344 0.374621 -3.446776 -2.891726 45.742771 -64.300357 81.286969 32.061721 4.058788 57.809294 -28.005830 31.362999 75.247156 2.758214 9.934015 -11.221481 -14.419962 73.825384 -26.257950 -31.951335 45.302439 -17.965117 -41.275707 7.257004 3.571483 12.939511 0.151395 -1.242820 2.043030 -0.532122 -1.304864 -5.825049 -0.681306 4.726476 -0.023490 -0.048436 -0.033980 13.578728 -0.309701 1.041231 1.799312 -0.338946 4.572366 -6.332634 0.448933 -1.399701 0.034481 -0.024186 0.033906 
-11.967243 -3.461222 82.846771 4.269936 8.135273 -114.573398 3.849364 -0.369064 1.131968 1.706785 -0.177180 0.501281 1.706785 -0.177180 0.501281 1.279944 -0.134286 0.375472 21.436402 -0.172858 0.588149 3.627635 -0.485073 1.026962 0.410594 -3.436625 -2.890016 45.667710 -64.262736 81.245633 32.060659 4.053515 57.780757 -27.839547 31.301292 75.030509 2.774507 9.936976 -11.212392 -14.469278 73.828034 -26.183411 -31.948090 45.308319 -17.932995 -41.305736 7.242931 3.565782 12.899628 0.160751 -1.246613 2.114374 -0.548669 -1.308613 -5.843516 -0.657903 4.697495 -0.023685 -0.048498 -0.033695 13.557842 -0.311267 1.026467 1.824908 -0.328172 4.572179 -6.333818 0.435747 -1.407165 0.032014 -0.020976 0.032766 
